Coordinates
version=1
nRows=10
nColumns=33
inDegrees=yes

Units are S.I. units (second, meters, Newtons, ...)
Angles are in degrees.

endheader
time	ground_thorax_rot_x	ground_thorax_rot_y	ground_thorax_rot_z	ground_thorax_tx	ground_thorax_ty	ground_thorax_tz	clav_prot_r	clav_elev_r	scapula_abduction_r	scapula_elevation_r	scapula_upward_rot_r	scapula_winging_r	shoulder_elv_r	plane_of_elev_r	axial_rot_r	elbow_flexion_r	pro_sup_r	wrist_flex_r	wrist_dev_r	clav_prot_l	clav_elev_l	scapula_abduction_l	scapula_elevation_l	scapula_upward_rot_l	scapula_winging_l	shoulder_elv_l	plane_of_elev_l	axial_rot_l	elbow_flexion_l	pro_sup_l	wrist_flex_l	wrist_dev_l
      3.75000000	     39.87188321	     11.72876544	     12.01690910	    -85.38917884	    777.50117654	     19.45129578	     12.37894432	     39.69742700	     45.00000000	     37.01477777	     -8.48547358	   2067.23356996	     57.37942373	     28.47797459	     60.34570766	   2167.92510190	     25.86960780	     16.77828832	     11.53857883	      6.28896966	    -45.00000000	    -42.88408074	     45.00000000	    -37.82502551	     81.44481747	    262.24171070	    134.26778017	   -179.99999979	   1088.20501911	     41.28607238	      8.93641271	    -19.55414654
      3.76000000	     39.78747195	     11.50660284	     11.52831588	    -84.06364765	    777.55468912	     19.70872505	     12.00101618	     39.48349026	     45.00000000	     36.76562455	     -7.61797995	   2067.08856976	     57.39895557	     28.39392663	     60.26837535	   2168.00183269	     25.76240531	     16.76671478	     11.51900353	      6.48907727	    -45.00000000	    -43.56059038	     45.00000000	    -36.51029157	     81.58729181	    261.96309654	    134.36333440	   -179.99999979	   1088.17899663	     41.04648281	      8.93636487	    -19.53965606
      3.77000000	     39.72354868	     11.25740906	     11.05386896	    -82.87256836	    777.61311074	     19.95695630	     11.74903563	     39.36808299	     45.00000000	     36.53376591	     -6.73626017	   2066.99218172	     57.35715749	     28.35126138	     60.25845995	   2167.90732675	     25.50301455	     16.71534395	     11.56984204	      6.46936689	    -45.00000000	    -44.23065621	     45.00000000	    -35.40441595	     81.65388517	    261.78556894	    134.43349895	   -179.99999979	   1088.10161002	     40.73815956	      8.95288908	    -19.49641664
      3.78000000	     39.67555857	     11.17293346	     10.84263992	    -81.80271399	    777.67882086	     20.18625814	     11.40651166	     39.06975573	     45.00000000	     36.48377114	     -6.29120696	   2067.30118669	     57.52680075	     27.93350583	     60.30881573	   2168.01753096	     25.15733624	     16.75084286	     11.67030042	      6.62881598	    -45.00000000	    -44.32401264	     45.00000000	    -34.35590518	     81.61013994	    261.40567696	    134.64835506	   -179.99999979	   1088.08136499	     40.41265722	      8.95098056	    -19.49598333
      3.79000000	     39.62514361	     10.95025228	     10.64001071	    -80.82038797	    777.75560272	     20.39479067	     11.30982407	     39.03001142	     45.00000000	     36.35592780	     -5.84371028	   2067.14054818	     57.18133942	     28.13421880	     60.15662942	   2167.80771245	     24.71669641	     16.64042151	     11.73139222	      6.45245691	    -45.00000000	    -44.32295674	     45.00000000	    -34.12166258	     81.47998731	    261.48190371	    134.52822560	   -179.99999979	   1087.95558736	     40.10398883	      9.04076003	    -19.45928027
      3.80000000	     39.51499853	     11.01644284	     10.46383923	    -79.93076324	    777.84567114	     20.57227659	     11.17383091	     38.98172696	     45.00000000	     36.15094973	     -5.51064038	   2067.15931268	     57.37766831	     27.96927838	     60.15182353	   2167.87804539	     24.18368016	     16.63776023	     11.78495888	      6.60898462	    -45.00000000	    -45.00000000	     45.00000000	    -33.21461625	     81.76311582	    261.19567685	    134.62454513	   -179.99999979	   1087.94094530	     39.69005589	      8.98409316	    -19.37211124
      3.81000000	     39.51336581	     10.67464555	     10.00905400	    -79.10061726	    777.95345694	     20.72268498	     11.09080856	     38.75505983	     45.00000000	     36.05621375	     -4.84185478	   2066.99305365	     57.16266540	     28.14972877	     60.10522095	   2167.79743316	     23.64900490	     16.57211941	     11.84680167	      6.56929655	    -45.00000000	    -45.00000000	     45.00000000	    -32.53432542	     81.54651847	    261.17701930	    134.63680982	   -179.99999979	   1087.82841547	     39.31562539	      9.14883019	    -19.40436751
      3.82000000	     39.39784431	     10.68000885	     10.10593270	    -78.35157685	    778.07698687	     20.84174004	     10.82825061	     38.87946845	     45.00000000	     35.83579731	     -4.51001998	   2067.20084504	     57.26257170	     27.87082401	     60.22466250	   2167.79968575	     23.16371257	     16.56337780	     11.90082434	      6.49771000	    -45.00000000	    -45.00000000	     45.00000000	    -32.01991596	     81.68300971	    260.96155291	    134.70274242	   -179.99999979	   1087.67321353	     38.93462401	      9.09553182	    -19.25336650
      3.83000000	     39.52390001	     10.47700174	      9.70099076	    -77.66119081	    778.21799959	     20.93711408	     10.92195224	     38.53340014	     45.00000000	     35.87656838	     -4.27603534	   2067.01192184	     56.96063124	     28.31688810	     60.28184437	   2167.59355148	     22.72723907	     16.44703115	     11.88484130	      6.42630485	    -45.00000000	    -45.00000000	     45.00000000	    -31.99503186	     81.22153900	    261.16801692	    134.64136606	   -179.99999979	   1087.62580920	     38.61072459	      9.32483210	    -19.37418558
      3.84000000	     39.41758412	     10.57904416	      9.78449529	    -77.02543812	    778.37608406	     21.00954478	     10.66137675	     38.69335645	     45.00000000	     35.74893672	     -4.01695284	   2067.24432958	     57.18420206	     27.92456039	     60.41299264	   2167.67685036	     22.29279295	     16.48571891	     11.96997107	      6.40087070	    -45.00000000	    -45.00000000	     45.00000000	    -31.55517084	     81.44297086	    260.80977545	    134.55077530	   -179.99999979	   1087.54484260	     38.20679450	      9.23005867	    -19.18676053
